{"asset":{"version":"2.0","generator":"babylon.js glTF exporter for 3dsmax 2019 v20200615.2"},"scene":0,"scenes":[{"nodes":[0]}],"nodes":[{"children":[1,2],"scale":[100,100,100],"name":"root"},{"mesh":0,"name":"Box001"},{"name":"Default light"}],"meshes":[{"primitives":[{"attributes":{"POSITION":1,"NORMAL":2,"TEXCOORD_0":3},"indices":0,"material":0},{"attributes":{"POSITION":5,"NORMAL":6,"TEXCOORD_0":7},"indices":4,"material":1}],"name":"Box001"}],"accessors":[{"bufferView":0,"componentType":5123,"count":36,"type":"SCALAR","name":"accessorIndices"},{"bufferView":1,"componentType":5126,"count":36,"max":[5.395659,10.7913179,0.000130112516],"min":[-5.395659,0,-0.138771474],"type":"VEC3","name":"accessorPositions"},{"bufferView":1,"byteOffset":432,"componentType":5126,"count":36,"type":"VEC3","name":"accessorNormals"},{"bufferView":2,"componentType":5126,"count":36,"type":"VEC2","name":"accessorUVs"},{"bufferView":0,"byteOffset":72,"componentType":5123,"count":49980,"type":"SCALAR","name":"accessorIndices"},{"bufferView":1,"byteOffset":864,"componentType":5126,"count":49980,"max":[4.07582235,5.92214,0.04852066],"min":[-3.97183037,4.66053438,0.004521374],"type":"VEC3","name":"accessorPositions"},{"bufferView":1,"byteOffset":600624,"componentType":5126,"count":49980,"type":"VEC3","name":"accessorNormals"},{"bufferView":2,"byteOffset":288,"componentType":5126,"count":49980,"type":"VEC2","name":"accessorUVs"}],"bufferViews":[{"buffer":0,"byteLength":100032,"name":"bufferViewScalar"},{"buffer":0,"byteOffset":100032,"byteLength":1200384,"byteStride":12,"name":"bufferViewFloatVec3"},{"buffer":0,"byteOffset":1300416,"byteLength":400128,"byteStride":8,"name":"bufferViewFloatVec2"}],"buffers":[{"uri":"data:application/octet-stream;base64,","byteLength":1700544}],"materials":[{"pbrMetallicRoughness":{"baseColorFactor":[0.5882353,0.5882353,0.5882353,1],"metallicFactor":0,"roughnessFactor":0.450053632},"name":"09 - Default"},{"pbrMetallicRoughness":{"baseColorFactor":[0,0,0,1],"metallicFactor":0,"roughnessFactor":0.450053632},"name":"08 - Default"}]}